<svg width="768" height="144" viewBox="0 0 768 144" fill="none" xmlns="http://www.w3.org/2000/svg">
<path d="M766.359 0.752197L704.355 107.752H200.359" stroke="white" stroke-width="3"/>
<rect x="190.78" y="72.6071" width="2.53057" height="1.86403" fill="#232323" stroke="white" stroke-width="1.86403"/>
<rect x="-0.932017" y="0.932017" width="2.53057" height="1.86403" transform="matrix(-1 0 0 1 10.4426 71.675)" fill="#232323" stroke="white" stroke-width="1.86403"/>
<rect x="-0.932017" y="0.932017" width="2.53057" height="1.86403" transform="matrix(-1 0 0 1 196.771 134.306)" fill="#232323" stroke="white" stroke-width="1.86403"/>
<rect x="4.44764" y="135.238" width="2.53057" height="1.86403" fill="#232323" stroke="white" stroke-width="1.86403"/>
<rect x="195.174" y="76.3351" width="2.53057" height="1.86403" fill="#232323" stroke="white" stroke-width="1.86403"/>
<rect x="-0.932017" y="0.932017" width="2.53057" height="1.86403" transform="matrix(-1 0 0 1 6.04612 75.4031)" fill="#232323" stroke="white" stroke-width="1.86403"/>
<rect x="-0.932017" y="0.932017" width="2.53057" height="1.86403" transform="matrix(-1 0 0 1 192.378 138.035)" fill="#232323" stroke="white" stroke-width="1.86403"/>
<rect x="8.84217" y="138.967" width="2.53057" height="1.86403" fill="#232323" stroke="white" stroke-width="1.86403"/>
<line x1="12.3066" y1="141.762" x2="189.849" y2="141.762" stroke="white" stroke-width="2.98245"/>
<line x1="12.3066" y1="70.1838" x2="189.849" y2="70.1838" stroke="white" stroke-width="2.98245"/>
<line x1="200.126" y1="77.6399" x2="200.126" y2="135.798" stroke="white" stroke-width="2.98245"/>
<line x1="1.49123" y1="77.6399" x2="1.49122" y2="135.798" stroke="white" stroke-width="2.98245"/>
</svg>
